<svg width="300" height="102.56000366210937px" xmlns="http://www.w3.org/2000/svg" viewBox="61.94251098632813 23.719998168945317 376.11497802734374 102.56000366210937" style="background: rgba(0, 0, 0, 0);" preserveAspectRatio="xMidYMid"><defs><linearGradient id="editing-outline-gradient" x1="-0.41354545764260087" x2="1.4135454576426008" y1="0.09326335692419985" y2="0.9067366430758002"><stop offset="0" stop-color="#ee4208"></stop><stop offset="1" stop-color="#4139ff"></stop></linearGradient><filter id="editing-outline" x="-100%" y="-100%" width="300%" height="300%"><feMorphology in="SourceGraphic" operator="dilate" radius="1" result="outline"></feMorphology><feComposite operator="out" in="outline" in2="SourceAlpha"></feComposite></filter></defs><g filter="url(#editing-outline)"><g transform="translate(119.27002167701721, 93.20000267028809)"><path d="M28.03-10.76L28.03-10.76L28.03-10.76Q29.38-9.78 29.38-7.67L29.38-7.67L29.38-7.67Q29.38-5.56 28.47-4.08L28.47-4.08L28.47-4.08Q27.56-2.60 25.79-1.46L25.79-1.46L25.79-1.46Q22.00 0.99 15.37 0.99L15.37 0.99L15.37 0.99Q8.74 0.99 5.12-2.47L5.12-2.47L5.12-2.47Q1.51-5.93 1.51-12.06L1.51-12.06L1.51-12.06Q1.51-20.75 6.03-27.35L6.03-27.35L6.03-27.35Q9.46-32.24 15.60-34.32L15.60-34.32L15.60-34.32Q18.77-35.36 21.89-35.36L21.89-35.36L21.89-35.36Q25.01-35.36 26.94-34.94L26.94-34.94L26.94-34.94Q28.86-34.53 30.32-33.70L30.32-33.70L30.32-33.70Q33.49-31.88 33.49-28.96L33.49-28.96L33.49-28.96Q33.49-26.31 30.99-24.34L30.99-24.34L30.99-24.34Q28.70-22.57 26.83-22.57L26.83-22.57L26.83-22.57Q24.96-22.57 24.18-22.83L24.18-22.83L24.18-22.83Q24.39-24.70 24.39-25.92L24.39-25.92L24.39-25.92Q24.39-27.14 24.34-28.03L24.34-28.03L24.34-28.03Q24.28-28.91 24.02-29.74L24.02-29.74L24.02-29.74Q23.50-31.67 21.92-31.67L21.92-31.67L21.92-31.67Q20.33-31.67 18.75-30.19L18.75-30.19L18.75-30.19Q17.16-28.70 15.81-26.21L15.81-26.21L15.81-26.21Q12.74-20.54 12.74-13.83L12.74-13.83L12.74-13.83Q12.74-10.61 14.56-8.76L14.56-8.76L14.56-8.76Q16.38-6.92 20.28-6.92L20.28-6.92L20.28-6.92Q23.19-6.92 25.95-8.84L25.95-8.84L25.95-8.84Q27.14-9.67 28.03-10.76ZM45.03 1.04L45.03 1.04L45.03 1.04Q33.59 1.04 33.59-9.72L33.59-9.72L33.59-9.72Q33.59-17.37 37.80-22.31L37.80-22.31L37.80-22.31Q42.28-27.56 50.02-27.56L50.02-27.56L50.02-27.56Q55.64-27.56 58.50-24.96L58.50-24.96L58.50-24.96Q61.36-22.36 61.36-16.90L61.36-16.90L61.36-16.90Q61.36-8.58 56.89-3.74L56.89-3.74L56.89-3.74Q52.52 1.04 45.03 1.04ZM46.38-21.58L46.38-21.58L46.38-21.58Q45.76-20.18 45.27-18.07L45.27-18.07L45.27-18.07Q44.77-15.96 44.15-12.64L44.15-12.64L44.15-12.64Q43.52-9.31 43.52-5.20L43.52-5.20L43.52-5.20Q43.52-3.85 43.97-2.96L43.97-2.96L43.97-2.96Q44.41-2.08 45.60-2.08L45.60-2.08L45.60-2.08Q46.80-2.08 47.55-2.65L47.55-2.65L47.55-2.65Q48.31-3.22 48.88-4.58L48.88-4.58L48.88-4.58Q49.92-6.97 50.75-11.41L50.75-11.41L50.75-11.41Q51.58-15.86 51.66-17.78L51.66-17.78L51.66-17.78Q51.74-19.71 51.74-21.14L51.74-21.14L51.74-21.14Q51.74-22.57 51.32-23.50L51.32-23.50L51.32-23.50Q50.91-24.44 49.74-24.44L49.74-24.44L49.74-24.44Q48.57-24.44 47.79-23.71L47.79-23.71L47.79-23.71Q47.01-22.98 46.38-21.58ZM86.42 1.04L86.42 1.04L86.42 1.04Q80.13 1.04 80.13-3.85L80.13-3.85L80.13-3.85Q80.18-5.20 80.60-7.49L80.60-7.49L81.54-12.27L81.54-12.27Q82.94-19.03 82.94-20.54L82.94-20.54L82.94-20.54Q82.94-23.56 81.17-23.56L81.17-23.56L81.17-23.56Q78.21-23.56 76.65-15.81L76.65-15.81L73.58 0L63.13 1.04L68.54-26.57L77.06-27.56L76.23-22.46L76.23-22.46Q78.68-27.56 86.16-27.56L86.16-27.56L86.16-27.56Q89.80-27.56 91.34-26.03L91.34-26.03L91.34-26.03Q92.87-24.49 92.87-21.06L92.87-21.06L92.87-21.06Q92.87-17.84 91.21-10.30L91.21-10.30L91.21-10.30Q90.43-6.92 90.43-5.64L90.43-5.64L90.43-5.64Q90.43-4.37 91.13-3.64L91.13-3.64L91.13-3.64Q91.83-2.91 92.87-2.81L92.87-2.81L92.87-2.81Q92.35-1.04 90.56 0L90.56 0L90.56 0Q88.76 1.04 86.42 1.04ZM119.03 1.04L119.03 1.04L119.03 1.04Q112.74 1.04 112.74-3.85L112.74-3.85L112.74-3.85Q112.79-5.20 113.20-7.49L113.20-7.49L114.14-12.27L114.14-12.27Q115.54-19.03 115.54-20.54L115.54-20.54L115.54-20.54Q115.54-23.56 113.78-23.56L113.78-23.56L113.78-23.56Q110.81-23.56 109.25-15.81L109.25-15.81L106.18 0L95.73 1.04L101.14-26.57L109.67-27.56L108.84-22.46L108.84-22.46Q111.28-27.56 118.77-27.56L118.77-27.56L118.77-27.56Q122.41-27.56 123.94-26.03L123.94-26.03L123.94-26.03Q125.48-24.49 125.48-21.06L125.48-21.06L125.48-21.06Q125.48-17.84 123.81-10.30L123.81-10.30L123.81-10.30Q123.03-6.92 123.03-5.64L123.03-5.64L123.03-5.64Q123.03-4.37 123.73-3.64L123.73-3.64L123.73-3.64Q124.44-2.91 125.48-2.81L125.48-2.81L125.48-2.81Q124.96-1.04 123.16 0L123.16 0L123.16 0Q121.37 1.04 119.03 1.04ZM150.70-8.79L150.70-8.79L150.70-8.79Q152.00-7.90 152.00-5.95L152.00-5.95L152.00-5.95Q152.00-4.00 151.01-2.76L151.01-2.76L151.01-2.76Q150.02-1.51 148.41-0.68L148.41-0.68L148.41-0.68Q145.08 1.04 141.49 1.04L141.49 1.04L141.49 1.04Q137.90 1.04 135.80 0.26L135.80 0.26L135.80 0.26Q133.69-0.52 132.29-1.98L132.29-1.98L132.29-1.98Q129.53-4.73 129.53-9.78L129.53-9.78L129.53-9.78Q129.53-17.63 133.80-22.41L133.80-22.41L133.80-22.41Q138.37-27.56 146.33-27.56L146.33-27.56L146.33-27.56Q151.27-27.56 153.71-25.48L153.71-25.48L153.71-25.48Q155.53-23.92 155.53-21.37L155.53-21.37L155.53-21.37Q155.53-12.22 139.72-12.22L139.72-12.22L139.72-12.22Q139.52-10.87 139.52-9.72L139.52-9.72L139.52-9.72Q139.52-7.33 140.58-6.42L140.58-6.42L140.58-6.42Q141.65-5.51 143.62-5.51L143.62-5.51L143.62-5.51Q145.60-5.51 147.71-6.42L147.71-6.42L147.71-6.42Q149.81-7.33 150.70-8.79ZM140.09-14.46L140.09-14.46L140.09-14.46Q143.78-14.46 145.91-16.74L145.91-16.74L145.91-16.74Q148.04-18.93 148.04-22.41L148.04-22.41L148.04-22.41Q148.04-23.61 147.60-24.26L147.60-24.26L147.60-24.26Q147.16-24.91 146.28-24.91L146.28-24.91L146.28-24.91Q145.39-24.91 144.64-24.57L144.64-24.57L144.64-24.57Q143.88-24.23 143.10-23.09L143.10-23.09L143.10-23.09Q141.18-20.49 140.09-14.46ZM182.83-21.63L182.83-21.63L182.83-21.63Q182.83-19.45 181.01-18.10L181.01-18.10L181.01-18.10Q179.19-16.74 176.23-16.74L176.23-16.74L176.23-16.74Q174.98-16.74 174.25-17.11L174.25-17.11L174.25-17.11Q174.82-18.46 175.01-20.15L175.01-20.15L175.01-20.15Q175.19-21.84 175.19-22.31L175.19-22.31L175.19-22.31Q175.19-24.49 173.68-24.49L173.68-24.49L173.68-24.49Q172.64-24.49 171.47-23.19L171.47-23.19L171.47-23.19Q170.30-21.89 169.31-19.86L169.31-19.86L169.31-19.86Q167.13-15.18 167.13-10.45L167.13-10.45L167.13-10.45Q167.13-7.85 168.12-6.68L168.12-6.68L168.12-6.68Q169.10-5.51 171.29-5.51L171.29-5.51L171.29-5.51Q174.30-5.51 176.70-8.01L176.70-8.01L176.70-8.01Q177.37-8.79 177.74-9.67L177.74-9.67L177.74-9.67Q179.71-8.63 179.71-5.77L179.71-5.77L179.71-5.77Q179.71-2.86 176.49-0.94L176.49-0.94L176.49-0.94Q173.16 1.04 167.86 1.04L167.86 1.04L167.86 1.04Q157.30 1.04 157.30-10.14L157.30-10.14L157.30-10.14Q157.30-18.30 161.93-22.98L161.93-22.98L161.93-22.98Q166.40-27.56 174.62-27.56L174.62-27.56L174.62-27.56Q182.83-27.56 182.83-21.63ZM185.07-5.20L185.07-5.20L185.07-5.20Q185.07-6.60 185.80-10.14L185.80-10.14L188.55-24.18L185.48-24.18L185.69-25.74L185.69-25.74Q191.93-27.61 197.96-32.19L197.96-32.19L200.46-32.19L199.21-26.52L203.27-26.52L202.80-24.18L198.80-24.18L196.14-10.14L196.14-10.14Q195.47-6.92 195.47-5.82L195.47-5.82L195.47-5.82Q195.47-3.33 197.65-2.81L197.65-2.81L197.65-2.81Q197.13-1.04 195.26 0L195.26 0L195.26 0Q193.39 1.04 190.74 1.04L190.74 1.04L190.74 1.04Q188.08 1.04 186.58-0.62L186.58-0.62L186.58-0.62Q185.07-2.29 185.07-5.20ZM219.28-14.61L219.28-14.61L219.28-14.61Q221.16-17.94 221.16-21.32L221.16-21.32L221.16-21.32Q221.16-23.56 219.54-23.56L219.54-23.56L219.54-23.56Q218.30-23.56 217.00-21.42L217.00-21.42L217.00-21.42Q215.64-19.29 215.23-16.54L215.23-16.54L212.52 0L201.76 1.04L207.06-26.52L215.64-27.56L214.71-22.31L214.71-22.31Q217.26-27.56 222.98-27.56L222.98-27.56L222.98-27.56Q225.99-27.56 227.63-26.00L227.63-26.00L227.63-26.00Q229.27-24.44 229.27-21.24L229.27-21.24L229.27-21.24Q229.27-18.04 227.16-16.02L227.16-16.02L227.16-16.02Q225.06-13.99 221.47-13.99L221.47-13.99L221.47-13.99Q219.91-13.99 219.28-14.61ZM232.36-1.56L232.36-1.56L232.36-1.56Q231.14-2.91 230.59-5.04L230.59-5.04L230.59-5.04Q230.05-7.18 230.05-10.66L230.05-10.66L230.05-10.66Q230.05-14.14 231.24-17.32L231.24-17.32L231.24-17.32Q232.44-20.49 234.62-22.78L234.62-22.78L234.62-22.78Q239.10-27.56 246.48-27.56L246.48-27.56L246.48-27.56Q249.13-27.56 251.06-26.68L251.06-26.68L259.95-27.56L256.10-7.28L256.10-7.28Q255.94-6.66 255.94-5.51L255.94-5.51L255.94-5.51Q255.94-4.37 256.65-3.64L256.65-3.64L256.65-3.64Q257.35-2.91 258.39-2.81L258.39-2.81L258.39-2.81Q257.87-1.04 255.97 0L255.97 0L255.97 0Q254.07 1.04 251.94 1.04L251.94 1.04L251.94 1.04Q249.81 1.04 248.38 0.23L248.38 0.23L248.38 0.23Q246.95-0.57 246.53-1.92L246.53-1.92L246.53-1.92Q245.70-0.62 243.93 0.21L243.93 0.21L243.93 0.21Q242.16 1.04 239.80 1.04L239.80 1.04L239.80 1.04Q237.43 1.04 235.51 0.42L235.51 0.42L235.51 0.42Q233.58-0.21 232.36-1.56ZM243.33-22.67L243.33-22.67L243.33-22.67Q242.74-21.74 242.22-20.15L242.22-20.15L242.22-20.15Q241.70-18.56 240.84-14.33L240.84-14.33L240.84-14.33Q239.98-10.09 239.98-7.07L239.98-7.07L239.98-7.07Q239.98-4.06 240.45-3.17L240.45-3.17L240.45-3.17Q240.92-2.29 241.75-2.29L241.75-2.29L241.75-2.29Q243.41-2.29 244.63-3.87L244.63-3.87L244.63-3.87Q245.86-5.46 246.32-8.27L246.32-8.27L249.08-23.50L249.08-23.50Q247.99-24.44 246.71-24.44L246.71-24.44L246.71-24.44Q245.44-24.44 244.69-24.02L244.69-24.02L244.69-24.02Q243.93-23.61 243.33-22.67Z" fill="url(#editing-outline-gradient)"></path></g></g><style>text {
  font-size: 64px;
  font-family: Arial Black;
  dominant-baseline: central;
  text-anchor: middle;
}</style></svg>